<?xml version="1.0" encoding="utf-8"?>
<!-- Generator: Adobe Illustrator 15.0.0, SVG Export Plug-In  -->
<!DOCTYPE svg PUBLIC "-//W3C//DTD SVG 1.1//EN" "http://www.w3.org/Graphics/SVG/1.1/DTD/svg11.dtd" [
	<!ENTITY ns_flows "http://ns.adobe.com/Flows/1.0/">
]>
<svg version="1.1"
	 xmlns="http://www.w3.org/2000/svg" xmlns:xlink="http://www.w3.org/1999/xlink" xmlns:a="http://ns.adobe.com/AdobeSVGViewerExtensions/3.0/"
	 x="0px" y="0px" width="800px" height="200px" viewBox="0 0 800 200" enable-background="new 0 0 800 200" xml:space="preserve">
<defs>
</defs>
<path fill="#7AC943" d="M528.83,166.92c-150.572,15.722-275.398,4.495-278.807-25.076c-3.408-29.57,115.893-66.287,266.464-82.008
	c150.569-15.721,275.397-4.494,278.806,25.076C798.703,114.483,679.402,151.199,528.83,166.92z M798.943,86.675
	c-4.199-36.388-137.401-52.311-297.51-35.563c-160.105,16.748-286.492,59.824-282.286,96.212
	c4.199,36.391,137.399,52.312,297.509,35.563C676.762,166.141,803.149,123.064,798.943,86.675z"/>
<g>
	<path fill="#7AC943" d="M22,195c-9.374,0-17-7.626-17-17V22c0-9.374,7.626-17,17-17h156c9.374,0,17,7.626,17,17v156
		c0,9.374-7.626,17-17,17H22z"/>
	<path fill="#009245" d="M178,10c6.627,0,12,5.373,12,12v156c0,6.627-5.373,12-12,12H22c-6.627,0-12-5.373-12-12V22
		c0-6.627,5.373-12,12-12H178 M178,0H22C9.869,0,0,9.869,0,22v156c0,12.131,9.869,22,22,22h156c12.131,0,22-9.869,22-22V22
		C200,9.869,190.131,0,178,0L178,0z"/>
</g>
<polygon fill="#FFFFFF" stroke="#FFFFFF" stroke-width="20" stroke-linecap="round" stroke-linejoin="round" stroke-miterlimit="10" points="
	90,100 110,100 110,120 140,120 100,160 60,120 90,120 "/>
<line fill="none" stroke="#FFFFFF" stroke-width="20" stroke-linecap="round" stroke-linejoin="round" stroke-miterlimit="10" x1="90" y1="70" x2="110" y2="70"/>
<line fill="none" stroke="#FFFFFF" stroke-width="20" stroke-linecap="round" stroke-linejoin="round" stroke-miterlimit="10" x1="90" y1="40" x2="110" y2="40"/>
<g>
	<path fill="#FFFFFF" d="M178,20c1.103,0,2,0.897,2,2v156c0,1.103-0.897,2-2,2H22c-1.103,0-2-0.897-2-2V22c0-1.103,0.897-2,2-2H178
		 M178,10H22c-6.627,0-12,5.373-12,12v156c0,6.627,5.373,12,12,12h156c6.627,0,12-5.373,12-12V22C190,15.373,184.627,10,178,10
		L178,10z"/>
</g>
<g>
	<path fill="#006837" d="M274.979,93.947V10.579h29.553c8.6,0,16.42,2.003,23.244,5.953c5.23,3.013,9.322,7.862,12.156,14.41
		c2.767,6.329,4.172,13.646,4.172,21.742c0,8.103-1.407,15.354-4.183,21.554c-3.046,6.696-7.511,11.716-13.275,14.93
		c-5.76,3.173-12.759,4.779-20.812,4.779H274.979z M303.229,83.21c5.251,0,9.417-0.805,12.382-2.394
		c3.317-1.743,5.91-4.776,7.72-9.021c0.809-1.897,1.475-4.236,1.979-6.951c0.709-3.858,1.068-8.021,1.068-12.371
		c0-11.12-2.073-19.301-6.163-24.315c-2.022-2.437-4.503-4.219-7.363-5.285c-2.83-1.032-6.476-1.558-10.823-1.558h-10.324V83.21
		H303.229z"/>
	<path fill="#FFFFFF" d="M304.532,12.579c8.281,0,15.695,1.895,22.242,5.684c4.875,2.808,8.65,7.299,11.322,13.474
		c2.67,6.105,4.008,13.089,4.008,20.947c0,7.86-1.338,14.772-4.008,20.737c-2.873,6.315-7.014,10.983-12.424,14
		c-5.479,3.018-12.09,4.525-19.838,4.525h-28.855V12.579H304.532 M289.704,85.21h13.525c5.611,0,10.053-0.877,13.326-2.631
		c3.74-1.965,6.611-5.299,8.615-10c0.867-2.035,1.57-4.49,2.105-7.369c0.734-4,1.102-8.245,1.102-12.737
		c0-11.648-2.205-20.174-6.613-25.579c-2.271-2.737-5.01-4.7-8.215-5.895c-3.074-1.122-6.914-1.684-11.521-1.684h-12.324V85.21
		 M304.532,8.579h-27.553h-4v4v79.368v4h4h28.855c8.395,0,15.718-1.689,21.768-5.021c6.163-3.437,10.913-8.765,14.135-15.848
		c2.901-6.481,4.367-14.008,4.367-22.394c0-8.373-1.461-15.96-4.343-22.55c-3.003-6.938-7.375-12.103-12.991-15.337
		C321.646,10.672,313.488,8.579,304.532,8.579L304.532,8.579z M293.704,23.316h8.324c4.113,0,7.528,0.485,10.15,1.442
		c2.538,0.946,4.676,2.483,6.508,4.691c3.77,4.622,5.691,12.377,5.691,23.024c0,4.229-0.349,8.271-1.036,12.015
		c-0.476,2.562-1.1,4.76-1.851,6.523c-1.647,3.864-3.87,6.49-6.796,8.027c-2.699,1.446-6.548,2.172-11.466,2.172h-9.525V23.316
		L293.704,23.316z"/>
</g>
<g>
	<path fill="#006837" d="M374.466,95.527c-5.154,0-9.883-1.265-14.052-3.758c-3.966-2.346-7.08-5.581-9.25-9.61
		c-2.558-4.92-3.847-10.507-3.847-16.632c0-5.574,1.293-10.814,3.845-15.577c2.236-4.171,5.354-7.445,9.271-9.73
		c4.151-2.482,9.014-3.746,14.434-3.746c4.967,0,9.57,1.307,13.685,3.884c3.872,2.334,6.948,5.566,9.115,9.588
		c2.554,4.771,3.847,10.153,3.847,16.001c0,5.916-1.291,11.365-3.838,16.196c-2.176,4.04-5.253,7.271-9.153,9.622
		C384.269,94.265,379.546,95.527,374.466,95.527z M374.265,45.526c-1.741,0-3.445,0.845-5.21,2.583
		c-3.328,3.248-5.013,9.283-5.013,17.943c0,6.313,1.001,11.419,2.976,15.175c0.912,1.74,2.126,3.076,3.712,4.085
		c1.222,0.783,2.409,1.162,3.635,1.162c1.875,0,3.646-0.845,5.411-2.583c1.672-1.636,2.975-4.195,3.878-7.612
		c0.751-2.962,1.135-6.303,1.135-9.91c0-6.652-0.999-11.896-2.969-15.584c-0.866-1.697-2.083-3.03-3.737-4.11
		C376.876,45.906,375.622,45.526,374.265,45.526z"/>
	<path fill="#FFFFFF" d="M374.866,38.474c4.607,0,8.816,1.194,12.623,3.579c3.607,2.176,6.412,5.123,8.416,8.842
		c2.404,4.492,3.607,9.51,3.607,15.052c0,5.615-1.203,10.703-3.607,15.264c-2.004,3.721-4.809,6.668-8.416,8.842
		c-3.941,2.316-8.283,3.475-13.023,3.475c-4.811,0-9.152-1.158-13.025-3.475c-3.674-2.174-6.512-5.121-8.516-8.842
		c-2.406-4.631-3.607-9.858-3.607-15.684c0-5.264,1.201-10.14,3.607-14.632c2.068-3.858,4.908-6.842,8.516-8.947
		C365.313,39.632,369.788,38.474,374.866,38.474 M374.364,88.474c2.404,0,4.676-1.053,6.814-3.158
		c1.936-1.895,3.406-4.736,4.408-8.526c0.801-3.157,1.201-6.632,1.201-10.421c0-7.017-1.068-12.526-3.205-16.526
		c-1.002-1.964-2.473-3.579-4.408-4.842c-1.539-0.982-3.174-1.474-4.91-1.474c-2.271,0-4.477,1.053-6.613,3.158
		c-3.74,3.65-5.609,10.105-5.609,19.368c0,6.668,1.066,12.037,3.205,16.105c1.068,2.037,2.537,3.65,4.408,4.842
		C371.192,87.984,372.763,88.474,374.364,88.474 M374.866,34.474c-5.786,0-10.994,1.359-15.479,4.041
		c-4.202,2.453-7.575,5.989-9.988,10.491c-2.709,5.057-4.082,10.615-4.082,16.522c0,6.449,1.365,12.346,4.058,17.528l0.014,0.026
		l0.015,0.026c2.345,4.354,5.709,7.848,10,10.387c4.468,2.672,9.541,4.032,15.063,4.032c5.44,0,10.505-1.354,15.05-4.026
		c4.25-2.561,7.572-6.05,9.911-10.394c2.717-5.153,4.086-10.916,4.086-17.161c0-6.181-1.373-11.88-4.081-16.94
		c-2.339-4.34-5.65-7.823-9.847-10.361C385.154,35.877,380.203,34.474,374.866,34.474L374.866,34.474z M374.364,84.474
		c-0.831,0-1.666-0.276-2.552-0.843c-1.292-0.822-2.278-1.91-3.023-3.331c-1.823-3.469-2.747-8.262-2.747-14.248
		c0-7.987,1.522-13.694,4.403-16.505c1.365-1.345,2.646-2.021,3.819-2.021c0.964,0,1.866,0.277,2.759,0.846
		c1.319,0.861,2.311,1.944,2.996,3.288l0.018,0.034l0.018,0.033c1.813,3.395,2.733,8.321,2.733,14.642
		c0,3.441-0.363,6.616-1.078,9.438c-0.8,3.024-1.924,5.275-3.329,6.651C377,83.817,375.688,84.474,374.364,84.474L374.364,84.474z"
		/>
</g>
<g>
	<polygon fill="#006837" points="451.861,94.684 441.007,61.215 430.329,94.684 418.753,94.684 401.952,37.316 418.243,37.316 
		427.642,69.409 437.824,37.316 449.662,37.316 460.035,69.463 469.45,37.316 480.231,37.316 463.429,94.684 	"/>
	<path fill="#FFFFFF" d="M477.562,39.316l-15.631,53.368h-8.615l-12.324-38l-12.123,38h-8.617l-15.629-53.368h12.123l10.82,36.947
		l11.723-36.947h8.918l11.922,36.947l10.82-36.947H477.562 M482.901,35.316h-5.34h-6.613h-2.997l-0.842,2.876l-7.167,24.472
		l-7.93-24.576l-0.895-2.771h-2.912h-8.918h-2.928l-0.885,2.791l-7.757,24.448l-7.135-24.362l-0.843-2.876h-2.996h-12.123h-5.34
		l1.501,5.124l15.629,53.368l0.842,2.876h2.997h8.617h2.923l0.888-2.784l8.344-26.153l8.488,26.171l0.896,2.766h2.908h8.615h2.996
		l0.843-2.875L481.4,40.44L482.901,35.316L482.901,35.316z"/>
</g>
<g>
	<path fill="#006837" d="M516.839,94.684V57.316c0-10.842-4.302-10.842-5.715-10.842c-2.627,0-4.854,1.284-6.809,3.926
		c-1.405,1.879-2.581,3.704-3.499,5.433c-1.188,2.242-1.217,2.931-1.218,2.959v35.893h-15.922V37.316h15.922v5.533
		c0.812-0.847,1.605-1.568,2.391-2.171c3.392-2.711,7.419-4.098,11.939-4.098c3.762,0,7.28,0.984,10.46,2.924
		c5.556,3.393,8.372,9.067,8.372,16.865v38.315H516.839z"/>
	<path fill="#FFFFFF" d="M513.929,38.579c3.406,0,6.545,0.878,9.418,2.631c4.941,3.018,7.414,8.071,7.414,15.158v36.315h-11.922
		V57.316c0-8.561-2.572-12.842-7.715-12.842c-3.273,0-6.08,1.579-8.416,4.737c-1.471,1.965-2.689,3.86-3.658,5.684
		c-0.967,1.826-1.451,3.124-1.451,3.895v33.895h-11.922V39.316h11.922v9.158c2.002-2.806,3.873-4.876,5.609-6.21
		C506.28,39.808,509.854,38.579,513.929,38.579 M513.929,34.579c-4.601,0-8.743,1.306-12.33,3.886v-3.149h-4h-11.922h-4v4v53.368v4
		h4h11.922h4v-4V58.967c0.055-0.2,0.267-0.841,0.986-2.201c0.867-1.634,1.987-3.372,3.325-5.16c2.079-2.811,3.971-3.133,5.214-3.133
		c0.919,0,3.715,0,3.715,8.842v35.368v4h4h11.922h4v-4V56.369c0-8.542-3.139-14.791-9.329-18.572
		C521.933,35.662,518.063,34.579,513.929,34.579L513.929,34.579z"/>
</g>
<g>
	<rect x="541.685" y="9.737" fill="#006837" width="16.123" height="84.947"/>
	<path fill="#FFFFFF" d="M555.808,11.737v80.947h-12.123V11.737H555.808 M559.808,7.737h-4h-12.123h-4v4v80.947v4h4h12.123h4v-4
		V11.737V7.737L559.808,7.737z"/>
</g>
<g>
	<path fill="#006837" d="M590.874,95.527c-5.154,0-9.883-1.265-14.052-3.758c-3.966-2.346-7.08-5.581-9.25-9.61
		c-2.558-4.925-3.847-10.511-3.847-16.632c0-5.57,1.293-10.81,3.844-15.576c2.239-4.172,5.357-7.445,9.271-9.73
		c4.152-2.482,9.015-3.747,14.435-3.747c4.966,0,9.57,1.307,13.687,3.884c3.872,2.335,6.948,5.567,9.115,9.588
		c2.554,4.771,3.847,10.153,3.847,16.001c0,5.916-1.291,11.365-3.838,16.196c-2.176,4.04-5.253,7.271-9.153,9.622
		C600.679,94.265,595.955,95.527,590.874,95.527z M590.675,45.526c-1.741,0-3.445,0.845-5.21,2.583
		c-3.33,3.248-5.015,9.283-5.015,17.943c0,6.311,1.002,11.417,2.978,15.175c0.91,1.739,2.124,3.074,3.712,4.085
		c1.221,0.783,2.408,1.162,3.635,1.162c1.874,0,3.644-0.845,5.409-2.583c1.671-1.634,2.974-4.193,3.878-7.612
		c0.753-2.96,1.137-6.301,1.137-9.91c0-6.65-1-11.894-2.971-15.584c-0.867-1.698-2.084-3.032-3.737-4.109
		C593.285,45.905,592.032,45.526,590.675,45.526z"/>
	<path fill="#FFFFFF" d="M591.274,38.474c4.609,0,8.816,1.194,12.625,3.579c3.607,2.176,6.412,5.123,8.416,8.842
		c2.404,4.492,3.607,9.51,3.607,15.052c0,5.615-1.203,10.703-3.607,15.264c-2.004,3.721-4.809,6.668-8.416,8.842
		c-3.941,2.316-8.283,3.475-13.025,3.475c-4.809,0-9.152-1.158-13.025-3.475c-3.674-2.174-6.512-5.121-8.516-8.842
		c-2.404-4.631-3.607-9.858-3.607-15.684c0-5.264,1.203-10.14,3.607-14.632c2.07-3.858,4.91-6.842,8.516-8.947
		C581.722,39.632,586.198,38.474,591.274,38.474 M590.774,88.474c2.404,0,4.674-1.053,6.813-3.158
		c1.938-1.895,3.406-4.736,4.408-8.526c0.803-3.157,1.203-6.632,1.203-10.421c0-7.017-1.07-12.526-3.207-16.526
		c-1.002-1.964-2.471-3.579-4.408-4.842c-1.537-0.982-3.174-1.474-4.908-1.474c-2.273,0-4.477,1.053-6.613,3.158
		c-3.742,3.65-5.611,10.105-5.611,19.368c0,6.668,1.068,12.037,3.207,16.105c1.066,2.037,2.537,3.65,4.408,4.842
		C587.601,87.984,589.171,88.474,590.774,88.474 M591.274,34.474c-5.786,0-10.994,1.359-15.479,4.041
		c-4.2,2.453-7.573,5.989-9.987,10.489c-2.71,5.063-4.083,10.621-4.083,16.523c0,6.444,1.365,12.341,4.058,17.527l0.014,0.027
		l0.015,0.027c2.345,4.354,5.709,7.848,10,10.387c4.468,2.672,9.541,4.032,15.063,4.032c5.442,0,10.507-1.354,15.052-4.026
		c4.25-2.561,7.572-6.05,9.911-10.394c2.717-5.153,4.086-10.916,4.086-17.161c0-6.181-1.373-11.88-4.081-16.94
		c-2.339-4.341-5.65-7.824-9.848-10.362C601.562,35.877,596.609,34.474,591.274,34.474L591.274,34.474z M590.774,84.474
		c-0.832,0-1.666-0.275-2.55-0.842c-1.296-0.825-2.281-1.912-3.023-3.33c-1.826-3.475-2.751-8.267-2.751-14.25
		c0-7.987,1.522-13.694,4.404-16.505c1.386-1.364,2.63-2.021,3.82-2.021c0.964,0,1.865,0.276,2.755,0.845
		c1.321,0.861,2.313,1.944,2.998,3.289l0.018,0.034l0.018,0.033c1.815,3.397,2.735,8.324,2.735,14.642
		c0,3.443-0.363,6.617-1.08,9.435c-0.801,3.029-1.924,5.279-3.328,6.652C593.408,83.817,592.098,84.474,590.774,84.474
		L590.774,84.474z"/>
</g>
<g>
	<path fill="#006837" d="M638.765,95.421c-5.809,0-10.338-1.908-13.461-5.67c-2.769-3.378-4.168-7.488-4.168-12.225
		c0-5.306,1.751-9.717,5.206-13.111c2.454-2.344,5.638-4.063,9.483-5.132c3.018-0.811,7.142-1.33,12.273-1.545
		c1.678-0.056,3.775-0.113,6.301-0.169V57c0-4.644-0.923-7.826-2.743-9.458c-1.462-1.365-3.113-2.016-5.077-2.016
		c-1.684,0-6.807,0-7.928,11.251l-0.18,1.802h-16.474l0.252-2.225c0.361-3.185,0.973-5.69,1.871-7.658
		c2.064-4.728,5.834-8.234,11.19-10.394c2.883-1.21,6.648-1.829,11.168-1.829c6.01,0,10.901,1.084,14.539,3.223
		c5.843,3.464,8.803,9.213,8.803,17.093v37.895h-15.422v-5.096c-1.068,0.86-2.1,1.588-3.085,2.18
		C647.433,94.186,643.201,95.421,638.765,95.421z M654.399,66.652c-3.91,0.356-6.673,0.734-8.229,1.129
		c-3.547,0.855-5.93,2.254-7.104,4.162c-1.013,1.655-1.506,3.551-1.506,5.794c0,1.943,0.387,3.642,1.182,5.193
		c0.799,1.581,1.979,2.281,3.832,2.281c2.58,0,5.622-1.438,9.041-4.275c0.989-0.822,1.924-1.723,2.785-2.684V66.652z"/>
	<path fill="#FFFFFF" d="M646.479,38.474c5.676,0,10.186,0.983,13.525,2.947c5.211,3.089,7.816,8.211,7.816,15.369v35.895h-11.422
		v-7.579c-2.205,2.176-4.244,3.826-6.113,4.947c-3.605,2.246-7.447,3.369-11.521,3.369c-5.209,0-9.184-1.648-11.922-4.947
		c-2.473-3.018-3.707-6.666-3.707-10.947c0-4.771,1.535-8.666,4.607-11.685c2.205-2.105,5.076-3.648,8.617-4.632
		c2.871-0.771,6.813-1.263,11.822-1.474c2.07-0.069,4.809-0.14,8.217-0.21V57c0-5.263-1.137-8.911-3.408-10.947
		c-1.803-1.684-3.941-2.526-6.412-2.526c-5.744,0-9.051,4.352-9.918,13.053h-12.424c0.334-2.947,0.902-5.298,1.703-7.053
		c1.869-4.28,5.242-7.403,10.119-9.369C638.731,39.036,642.204,38.474,646.479,38.474 M642.573,87.21
		c3.07,0,6.512-1.578,10.318-4.736c1.268-1.053,2.438-2.211,3.508-3.475V64.474c-5.211,0.42-8.785,0.878-10.721,1.368
		c-4.076,0.983-6.848,2.667-8.316,5.052c-1.203,1.967-1.803,4.248-1.803,6.843c0,2.247,0.467,4.281,1.402,6.105
		C638.097,86.089,639.968,87.21,642.573,87.21 M646.479,34.474c-4.841,0-8.747,0.649-11.941,1.984
		c-5.835,2.359-9.956,6.207-12.25,11.438c-0.979,2.158-1.642,4.851-2.025,8.233l-0.504,4.45h4.479h3.744
		c-1.09,0.711-2.091,1.502-3.001,2.37l-0.021,0.02l-0.021,0.02c-3.851,3.784-5.804,8.675-5.804,14.538
		c0,5.211,1.552,9.747,4.613,13.482c3.537,4.261,8.583,6.412,15.016,6.412c4.805,0,9.383-1.331,13.607-3.956
		c0.009-0.005,0.019-0.011,0.027-0.017v3.235h4h11.422h4v-4V56.79c0-10.756-5.316-16.166-9.776-18.81
		C658.084,35.651,652.851,34.474,646.479,34.474L646.479,34.474z M640.712,56.326c1.034-8.799,4.407-8.799,5.867-8.799
		c1.453,0,2.623,0.46,3.682,1.449l0.03,0.028l0.03,0.027c1.178,1.056,1.89,3.369,2.046,6.585c-1.646,0.041-3.089,0.082-4.317,0.123
		C645.292,55.855,642.858,56.049,640.712,56.326L640.712,56.326z M642.573,83.21c-1.226,0-1.648-0.395-2.041-1.171
		c-0.658-1.284-0.973-2.684-0.973-4.302c0-1.863,0.397-3.419,1.215-4.755c0.882-1.432,2.85-2.529,5.843-3.25
		c0.892-0.226,2.565-0.532,5.782-0.873v8.61c-0.65,0.683-1.341,1.328-2.063,1.928C647.329,81.891,644.645,83.21,642.573,83.21
		L642.573,83.21z"/>
</g>
<g>
	<path fill="#006837" d="M698.577,95.421c-8.293,0-14.578-3.746-18.681-11.135c-2.83-5.278-4.259-11.617-4.259-18.865
		c0-6.617,1.258-12.35,3.738-17.041c4.313-7.909,10.735-11.907,19.102-11.907c4.486,0,8.49,1.263,11.9,3.753
		c0.368,0.265,0.744,0.569,1.129,0.913V9.737h15.922v84.947h-15.922v-3.91c-0.478,0.449-0.946,0.847-1.408,1.194
		C706.848,94.271,702.986,95.421,698.577,95.421z M701.183,46.369c-5.853,0-8.82,6.552-8.82,19.474
		c0,6.801,1.001,12.155,2.976,15.911c1.381,2.569,3.4,3.773,6.345,3.773c1.553,0,3.026-0.477,4.507-1.458
		c1.006-0.65,2.593-2.189,4.546-5.896c0.512-0.97,0.703-1.419,0.771-1.598V55.842c0-0.096-0.049-1.019-1.737-3.95
		c-0.997-1.845-2.297-3.212-4-4.228C704.325,46.791,702.829,46.369,701.183,46.369z"/>
	<path fill="#FFFFFF" d="M725.429,11.737v80.947h-11.922v-7.263c-1.672,2.246-3.207,3.895-4.609,4.947
		c-2.873,2.034-6.313,3.053-10.32,3.053c-7.549,0-13.191-3.369-16.932-10.105c-2.672-4.982-4.008-10.947-4.008-17.895
		c0-6.316,1.168-11.685,3.506-16.105c3.941-7.227,9.719-10.842,17.334-10.842c4.072,0,7.646,1.124,10.721,3.369
		c1.268,0.913,2.705,2.421,4.309,4.526V11.737H725.429 M701.683,87.527c1.938,0,3.809-0.596,5.611-1.79
		c1.736-1.122,3.473-3.332,5.211-6.632c0.666-1.263,1.002-2.034,1.002-2.315V55.842c0-0.982-0.67-2.632-2.004-4.948
		c-1.137-2.105-2.705-3.753-4.709-4.947c-1.738-1.053-3.607-1.579-5.611-1.579c-7.213,0-10.82,7.158-10.82,21.474
		c0,7.157,1.066,12.772,3.205,16.842C695.304,85.914,698.009,87.527,701.683,87.527 M729.429,7.737h-4h-11.922h-4v4v25.546
		c-3.271-1.863-6.974-2.809-11.029-2.809c-9.025,0-16.233,4.47-20.846,12.927l-0.013,0.022l-0.012,0.022
		c-2.634,4.981-3.97,11.029-3.97,17.976c0,7.582,1.508,14.238,4.482,19.785l0.014,0.026l0.015,0.026
		c4.418,7.958,11.482,12.164,20.429,12.164c4.082,0,7.749-0.91,10.93-2.708v1.971h4h11.922h4v-4V11.737V7.737L729.429,7.737z
		 M701.683,83.527c-2.217,0-3.547-0.793-4.592-2.737c-1.805-3.434-2.729-8.474-2.729-14.948c0-7.971,1.184-17.474,6.82-17.474
		c1.271,0,2.428,0.327,3.539,1c1.408,0.839,2.468,1.956,3.262,3.426l0.026,0.048l0.027,0.048c1.157,2.009,1.418,2.874,1.47,3.083
		v20.19c-0.099,0.214-0.266,0.555-0.54,1.075c-1.845,3.502-3.2,4.722-3.844,5.139C703.942,83.159,702.83,83.527,701.683,83.527
		L701.683,83.527z"/>
</g>
<g>
	<path fill="#006837" d="M295.752,189.422l-8.215-21.053H254.59l-8.416,21.053h-11.513l33.646-84.947h11.631l33.856,84.947H295.752z
		 M283.38,157.633l-12.136-31.364l-12.457,31.364H283.38z"/>
	<path fill="#FFFFFF" d="M278.583,106.475l32.262,80.947h-13.727l-8.215-21.053h-35.668l-8.416,21.053h-7.215l32.063-80.947H278.583
		 M255.841,159.633h30.457l-15.029-38.844L255.841,159.633 M281.295,102.475h-2.712h-8.916h-2.718l-1.001,2.527l-32.063,80.947
		l-2.168,5.473h5.887h7.215h2.709l1.005-2.516l7.411-18.537h30.226l7.222,18.507l0.993,2.546h2.733h13.727h5.9l-2.185-5.48
		l-32.262-80.947L281.295,102.475L281.295,102.475z M261.733,155.633l9.486-23.885l9.241,23.885H261.733L261.733,155.633z"/>
</g>
<g>
	<rect x="317.259" y="104.475" fill="#006837" width="16.123" height="84.947"/>
	<path fill="#FFFFFF" d="M331.382,106.475v80.947h-12.123v-80.947H331.382 M335.382,102.475h-4h-12.123h-4v4v80.947v4h4h12.123h4v-4
		v-80.947V102.475L335.382,102.475z"/>
</g>
<g>
	<rect x="342.308" y="104.475" fill="#006837" width="16.123" height="84.947"/>
	<path fill="#FFFFFF" d="M356.431,106.475v80.947h-12.123v-80.947H356.431 M360.431,102.475h-4h-12.123h-4v4v80.947v4h4h12.123h4v-4
		v-80.947V102.475L360.431,102.475z"/>
</g>
<g>
	<path fill="#006837" d="M424.259,190.264c-6.9,0-13.137-1.383-18.534-4.109c-5.387-2.791-9.063-7.636-10.945-14.407
		c-0.715-2.55-1.164-6.142-1.374-10.975l-0.091-2.087h17.098l0.112,1.881c0.197,3.302,0.396,5.773,0.591,7.347
		c0.598,3.957,1.85,7.044,3.713,9.121c2.155,2.384,5.045,3.546,8.829,3.546c2.661,0,5.014-0.631,7.193-1.93
		c1.839-1.087,3.234-2.555,4.271-4.489c1.107-2.024,1.665-4.287,1.665-6.739c0-2.85-0.828-5.076-2.531-6.809
		c-1.141-1.137-2.419-2.024-3.785-2.623l-0.175-0.077l-0.088-0.061c-0.179-0.089-0.86-0.401-3.388-1.417l-12.553-5.275
		c-4.659-1.972-7.763-3.52-9.491-4.734c-6.148-4.304-9.267-10.415-9.267-18.162c0-4.329,0.996-8.305,2.959-11.817
		c1.953-3.726,4.647-6.585,7.981-8.453c4.941-2.82,10.771-4.255,17.31-4.255c9.144,0,16.339,2.688,21.386,7.988
		c3.223,3.54,5.242,7.817,6.036,12.744c0.282,1.399,0.426,3.318,0.426,5.793v2h-16.951l-0.071-1.926
		c-0.13-3.53-0.386-6.213-0.76-7.976c-1.506-6.079-4.773-8.94-10.267-8.94c-2.319,0-4.373,0.56-6.28,1.712
		c-1.39,0.817-2.427,1.879-3.191,3.258c-1.096,1.999-1.653,4.296-1.653,6.819c0,2.743,0.678,4.711,2.071,6.014
		c1.202,1.199,2.621,2.159,4.264,2.899c1.038,0.509,2.182,1.023,3.459,1.559l11.618,4.841c4.309,1.795,7.062,3.031,8.414,3.778
		c3.689,2.052,6.459,4.512,8.235,7.313c2.137,3.405,3.218,7.623,3.218,12.544c0,6.992-2.021,12.854-6.005,17.42
		C442.505,187.35,434.623,190.264,424.259,190.264z"/>
	<path fill="#FFFFFF" d="M423.759,105.738c8.615,0,15.262,2.457,19.938,7.367c2.938,3.229,4.775,7.123,5.51,11.684
		c0.268,1.334,0.4,3.158,0.4,5.475h-13.023c-0.135-3.648-0.4-6.422-0.803-8.316c-1.736-7.016-5.811-10.525-12.223-10.525
		c-2.672,0-5.109,0.668-7.314,2c-1.67,0.982-2.973,2.316-3.906,4c-1.27,2.316-1.904,4.912-1.904,7.789
		c0,3.299,0.902,5.789,2.705,7.475c1.336,1.334,2.939,2.42,4.809,3.262c1.002,0.492,2.17,1.02,3.508,1.58l11.621,4.842
		c4.209,1.754,6.947,2.982,8.217,3.684c3.406,1.895,5.91,4.105,7.514,6.633c1.938,3.088,2.906,6.912,2.906,11.473
		c0,6.527-1.838,11.895-5.512,16.105c-4.809,5.334-12.123,8-21.941,8c-6.613,0-12.49-1.297-17.633-3.895
		c-4.877-2.527-8.184-6.912-9.92-13.158c-0.668-2.385-1.102-5.895-1.303-10.525h13.125c0.201,3.367,0.402,5.859,0.602,7.473
		c0.668,4.422,2.07,7.826,4.209,10.211c2.537,2.807,5.977,4.211,10.318,4.211c3.006,0,5.744-0.738,8.217-2.211
		c2.137-1.264,3.807-3.018,5.01-5.264c1.268-2.316,1.902-4.877,1.902-7.684c0-3.369-1.035-6.105-3.105-8.211
		c-1.336-1.332-2.805-2.35-4.408-3.053c-0.201-0.139-1.438-0.666-3.707-1.578l-12.523-5.264c-4.477-1.895-7.516-3.402-9.117-4.527
		c-5.611-3.928-8.416-9.438-8.416-16.525c0-4,0.9-7.613,2.705-10.842c1.803-3.438,4.207-6,7.213-7.684
		C412.101,107.07,417.546,105.738,423.759,105.738 M423.759,101.738c-6.892,0-13.054,1.522-18.315,4.526
		c-3.636,2.036-6.588,5.154-8.747,9.252c-2.115,3.803-3.188,8.092-3.188,12.747c0,8.438,3.405,15.101,10.122,19.803
		c1.841,1.293,5.065,2.908,9.853,4.934l12.532,5.268l0.029,0.013l0.029,0.012c2.089,0.84,2.862,1.177,3.132,1.3l0.11,0.076
		l0.35,0.153c1.155,0.507,2.199,1.233,3.19,2.223c1.308,1.33,1.93,3.048,1.93,5.378c0,2.143-0.462,4.028-1.411,5.764
		c-0.876,1.635-2.027,2.848-3.537,3.74c-1.872,1.115-3.891,1.654-6.181,1.654c-3.187,0-5.591-0.946-7.351-2.894
		c-1.58-1.761-2.664-4.48-3.214-8.072c-0.187-1.534-0.379-3.945-0.571-7.167l-0.225-3.762h-3.769h-13.125h-4.178l0.182,4.174
		c0.217,4.988,0.69,8.728,1.447,11.431c2.035,7.321,6.05,12.583,11.931,15.631c5.718,2.888,12.257,4.343,19.474,4.343
		c10.954,0,19.336-3.137,24.912-9.321l0.022-0.024l0.021-0.024c4.312-4.942,6.498-11.245,6.498-18.735
		c0-5.303-1.184-9.878-3.518-13.599c-1.969-3.103-4.979-5.789-8.958-8.003c-1.428-0.788-4.245-2.056-8.622-3.88l-11.622-4.842
		c-1.233-0.517-2.34-1.015-3.282-1.478l-0.061-0.03l-0.061-0.027c-1.422-0.64-2.642-1.463-3.625-2.444l-0.046-0.047l-0.049-0.045
		c-0.355-0.332-1.437-1.344-1.437-4.553c0-2.214,0.462-4.133,1.412-5.866c0.577-1.04,1.374-1.855,2.427-2.476
		c1.626-0.981,3.342-1.447,5.286-1.447c3.197,0,6.684,0.884,8.323,7.42c0.344,1.652,0.58,4.198,0.705,7.569l0.143,3.853h3.854
		h13.023h4v-4c0-2.566-0.151-4.59-0.463-6.184c-0.864-5.287-3.048-9.885-6.488-13.667l-0.031-0.033l-0.031-0.033
		C441.153,104.635,433.471,101.738,423.759,101.738L423.759,101.738z"/>
</g>
<g>
	<path fill="#006837" d="M483.671,190.264c-5.154,0-9.883-1.265-14.052-3.758c-3.966-2.347-7.08-5.581-9.25-9.61
		c-2.558-4.925-3.847-10.512-3.847-16.632c0-5.57,1.293-10.811,3.845-15.575c2.239-4.175,5.357-7.447,9.271-9.73
		c4.15-2.482,9.014-3.747,14.434-3.747c4.967,0,9.571,1.307,13.687,3.883c3.872,2.339,6.947,5.571,9.113,9.59
		c2.554,4.77,3.847,10.151,3.847,16.002c0,5.915-1.291,11.363-3.838,16.194c-2.176,4.039-5.251,7.271-9.151,9.622
		C493.476,189.002,488.752,190.264,483.671,190.264z M483.472,140.264c-1.742,0-3.445,0.845-5.21,2.583
		c-3.33,3.247-5.015,9.281-5.015,17.942c0,6.312,1.002,11.417,2.978,15.175c0.91,1.738,2.124,3.074,3.713,4.088
		c1.22,0.78,2.407,1.159,3.634,1.159c1.874,0,3.644-0.845,5.409-2.583c1.671-1.634,2.974-4.193,3.878-7.612
		c0.753-2.961,1.137-6.302,1.137-9.91c0-6.649-1-11.893-2.971-15.583c-0.867-1.699-2.084-3.032-3.736-4.108
		C486.082,140.643,484.828,140.264,483.472,140.264z"/>
	<path fill="#FFFFFF" d="M484.071,133.211c4.609,0,8.816,1.193,12.625,3.578c3.605,2.178,6.41,5.125,8.414,8.844
		c2.404,4.49,3.607,9.51,3.607,15.053c0,5.615-1.203,10.701-3.607,15.262c-2.004,3.721-4.809,6.668-8.414,8.842
		c-3.941,2.316-8.283,3.475-13.025,3.475c-4.809,0-9.152-1.158-13.025-3.475c-3.674-2.174-6.512-5.121-8.516-8.842
		c-2.404-4.631-3.607-9.857-3.607-15.684c0-5.264,1.203-10.141,3.607-14.631c2.07-3.859,4.91-6.844,8.516-8.947
		C474.519,134.369,478.995,133.211,484.071,133.211 M483.571,183.211c2.404,0,4.674-1.053,6.813-3.158
		c1.938-1.895,3.406-4.736,4.408-8.525c0.803-3.158,1.203-6.633,1.203-10.422c0-7.016-1.07-12.525-3.207-16.525
		c-1.002-1.965-2.471-3.58-4.408-4.842c-1.537-0.982-3.174-1.475-4.908-1.475c-2.273,0-4.477,1.053-6.613,3.158
		c-3.742,3.648-5.611,10.105-5.611,19.367c0,6.668,1.068,12.037,3.207,16.105c1.066,2.037,2.537,3.65,4.408,4.844
		C480.397,182.721,481.968,183.211,483.571,183.211 M484.071,129.211c-5.787,0-10.995,1.359-15.479,4.042
		c-4.199,2.449-7.572,5.985-9.987,10.489c-2.71,5.06-4.083,10.618-4.083,16.521c0,6.444,1.365,12.341,4.058,17.526l0.014,0.027
		l0.015,0.026c2.345,4.354,5.709,7.849,10,10.388c4.468,2.673,9.541,4.032,15.063,4.032c5.442,0,10.507-1.354,15.052-4.026
		c4.25-2.562,7.57-6.051,9.909-10.394c2.717-5.152,4.086-10.915,4.086-17.158c0-6.184-1.373-11.884-4.081-16.94
		c-2.338-4.339-5.648-7.822-9.846-10.364C494.36,130.614,489.408,129.211,484.071,129.211L484.071,129.211z M483.571,179.211
		c-0.833,0-1.668-0.275-2.553-0.842c-1.292-0.824-2.278-1.912-3.021-3.33c-1.826-3.474-2.751-8.267-2.751-14.25
		c0-7.987,1.522-13.694,4.403-16.503c1.387-1.366,2.631-2.022,3.821-2.022c0.964,0,1.864,0.276,2.754,0.845
		c1.322,0.861,2.313,1.943,2.999,3.289l0.018,0.034l0.018,0.033c1.815,3.397,2.735,8.323,2.735,14.641
		c0,3.442-0.363,6.617-1.08,9.437c-0.801,3.027-1.924,5.277-3.328,6.65C486.205,178.554,484.895,179.211,483.571,179.211
		L483.571,179.211z"/>
</g>
<g>
	<path fill="#006837" d="M535.569,190.158c-3.835,0-7.427-1.021-10.674-3.037c-5.416-3.398-8.158-9.033-8.158-16.752v-38.316h15.922
		v37.369c0,10.842,4.298,10.842,5.916,10.842c2.665,0,5.076-1.611,7.371-4.928c1.202-1.728,2.293-3.615,3.245-5.615
		c0.7-1.313,0.708-1.755,0.708-1.773v-35.895h15.924v57.369h-15.924v-5.551c-0.813,0.86-1.607,1.587-2.394,2.19
		C544.117,188.771,540.091,190.158,535.569,190.158z"/>
	<path fill="#FFFFFF" d="M563.823,134.053v53.369h-11.924v-9.264c-2.004,2.879-3.875,4.984-5.611,6.316
		c-3.072,2.457-6.646,3.684-10.719,3.684c-3.475,0-6.68-0.912-9.619-2.736c-4.809-3.018-7.213-8.035-7.213-15.053v-36.316h11.922
		v35.369c0,8.563,2.639,12.842,7.916,12.842c3.338,0,6.344-1.93,9.016-5.789c1.27-1.824,2.404-3.789,3.406-5.895
		c0.602-1.123,0.902-2,0.902-2.633v-33.895H563.823 M567.823,130.053h-4h-11.924h-4v4v33.702c-0.041,0.128-0.153,0.423-0.429,0.937
		l-0.045,0.084l-0.041,0.086c-0.904,1.901-1.94,3.694-3.077,5.328c-2.82,4.074-5.013,4.074-5.732,4.074
		c-1.071,0-3.916,0-3.916-8.842v-35.369v-4h-4h-11.922h-4v4v36.316c0,8.453,3.058,14.657,9.087,18.44
		c3.585,2.226,7.531,3.349,11.745,3.349c4.603,0,8.745-1.307,12.33-3.887v3.15h4h11.924h4v-4v-53.369V130.053L567.823,130.053z"/>
</g>
<g>
	<path fill="#006837" d="M575.046,189.422v-57.369h15.924v7.497c4.354-5.456,10.65-8.267,18.721-8.339h3.521v15.369h-4.605
		c-5.187,0.065-9.017,0.847-11.357,2.322c-1.96,1.273-3.625,3.123-4.926,5.484c-1.206,2.134-1.369,2.968-1.392,3.159l0.038,0.145
		v31.731H575.046z"/>
	<path fill="#FFFFFF" d="M611.212,133.211v11.369h-2.605c-5.611,0.07-9.754,0.947-12.424,2.631
		c-2.271,1.475-4.143,3.545-5.611,6.211c-1.27,2.246-1.803,3.754-1.602,4.525v29.475h-11.924v-53.369h11.924v12.736
		c1.268-2.525,2.27-4.279,3.006-5.262c4.006-5.475,9.918-8.246,17.732-8.316H611.212 M615.212,129.211h-4h-1.504
		c-6.747,0.061-12.349,1.898-16.738,5.478v-0.636v-4h-4h-11.924h-4v4v53.369v4h4h11.924h4v-4v-29.475v-0.318
		c0.104-0.307,0.38-0.993,1.084-2.239c1.172-2.127,2.566-3.688,4.283-4.809c1.398-0.873,4.315-1.923,10.295-2.001h2.58h4v-4v-11.369
		V129.211L615.212,129.211z"/>
</g>
<g>
	<path fill="#006837" d="M640.968,190.158c-5.207,0-9.923-1.187-14.018-3.527c-3.758-2.09-6.775-5.626-8.949-10.5
		c-2.047-4.743-3.08-10.003-3.08-15.656c0-8.294,2.24-15.269,6.658-20.732c4.521-5.591,10.908-8.426,18.986-8.426
		c4.116,0,7.97,0.927,11.451,2.755c4.459,2.266,7.593,6.133,9.291,11.481c0.646,1.883,1.104,4.415,1.389,7.696l0.188,2.173h-16.294
		l-0.106-1.888c-0.192-3.432-0.476-5.885-0.841-7.294c-1.432-5.26-3.813-5.871-5.479-5.871c-1.498,0-2.825,0.551-4.057,1.683
		c-1.54,1.444-2.757,4.275-3.602,8.402c-0.57,2.931-0.861,6.379-0.861,10.231c0,7.278,1.065,12.944,3.166,16.84
		c0.597,1.192,1.458,2.092,2.665,2.807c0.888,0.519,1.836,0.773,2.89,0.773c1.398,0,2.574-0.497,3.595-1.519
		c0.862-0.869,1.988-2.864,2.431-7.411c0.094-0.661,0.209-2.029,0.292-5.331l0.048-1.95h16.312l-0.143,2.133
		c-0.209,3.15-0.486,5.455-0.848,7.047c-1.242,5.381-3.727,9.456-7.384,12.122C651.063,188.825,646.454,190.158,640.968,190.158z"/>
	<path fill="#FFFFFF" d="M640.565,133.316c3.809,0,7.314,0.842,10.521,2.525c4.008,2.037,6.777,5.475,8.314,10.316
		c0.602,1.756,1.035,4.176,1.303,7.264h-12.223c-0.201-3.58-0.502-6.141-0.902-7.684c-1.336-4.912-3.807-7.369-7.414-7.369
		c-2.004,0-3.807,0.736-5.41,2.211c-1.871,1.754-3.273,4.912-4.207,9.473c-0.602,3.09-0.902,6.633-0.902,10.633
		c0,7.648,1.135,13.578,3.406,17.789c0.734,1.473,1.869,2.668,3.406,3.578c1.203,0.703,2.506,1.053,3.908,1.053
		c1.936,0,3.607-0.701,5.01-2.105c1.602-1.613,2.604-4.49,3.006-8.631c0.133-0.912,0.232-2.736,0.301-5.475h12.223
		c-0.201,3.02-0.469,5.264-0.803,6.738c-1.135,4.912-3.34,8.563-6.611,10.947c-3.273,2.387-7.449,3.578-12.523,3.578
		c-4.877,0-9.219-1.088-13.025-3.264c-3.406-1.895-6.111-5.086-8.115-9.578c-1.938-4.49-2.906-9.438-2.906-14.842
		c0-7.859,2.07-14.352,6.213-19.475C627.274,135.879,633.085,133.316,640.565,133.316 M640.565,129.316
		c-8.712,0-15.623,3.085-20.542,9.169c-4.713,5.828-7.103,13.227-7.103,21.989c0,5.928,1.088,11.454,3.233,16.427
		c2.374,5.322,5.68,9.173,9.844,11.489c4.36,2.492,9.41,3.768,14.97,3.768c5.919,0,10.925-1.462,14.88-4.346
		c4.057-2.958,6.8-7.426,8.152-13.279c0.388-1.712,0.68-4.117,0.896-7.373l0.284-4.266h-4.275h-12.223h-3.901l-0.098,3.9
		c-0.084,3.371-0.199,4.578-0.26,4.998l-0.014,0.095l-0.01,0.095c-0.42,4.324-1.443,5.776-1.863,6.199
		c-0.644,0.646-1.296,0.924-2.171,0.924c-0.698,0-1.299-0.161-1.89-0.506c-0.846-0.501-1.456-1.13-1.846-1.91l-0.028-0.058
		l-0.03-0.057c-1.942-3.6-2.927-8.946-2.927-15.89c0-3.724,0.278-7.044,0.829-9.868c0.988-4.831,2.314-6.661,3.016-7.319
		c0.841-0.772,1.675-1.129,2.675-1.129c0.704,0,2.353,0,3.555,4.419c0.216,0.836,0.537,2.748,0.768,6.858l0.213,3.775h3.781h12.223
		h4.361l-0.376-4.346c-0.297-3.421-0.784-6.095-1.489-8.17c-1.866-5.848-5.324-10.093-10.277-12.618
		C649.157,130.316,645,129.316,640.565,129.316L640.565,129.316z"/>
</g>
<g>
	<path fill="#006837" d="M691.563,190.264c-7.994,0-14.237-2.574-18.557-7.651c-1.702-1.86-3.072-3.963-4.023-6.195
		c-2.162-4.838-3.266-10.106-3.266-15.628c0-6.258,1.354-12.088,4.024-17.328c1.979-3.773,4.722-6.729,8.163-8.805
		c3.926-2.291,8.444-3.445,13.457-3.445c4.527,0,8.765,1.076,12.593,3.198c5.322,3.028,8.85,8.502,10.504,16.28
		c0.567,2.838,0.875,6.606,0.946,11.546l0.029,2.028h-33.414c0.269,4.68,1.09,8.575,2.449,11.603
		c0.842,1.766,1.89,3.149,3.098,4.072c1.12,0.856,2.295,1.272,3.594,1.272c1.465,0,2.814-0.535,4.126-1.637
		c2.147-1.912,3.44-5.39,3.799-10.298l0.136-1.854h16.124l-0.254,2.227c-0.359,3.154-0.859,5.521-1.528,7.236
		c-1.628,4.046-4.281,7.265-7.896,9.587C701.673,188.991,696.932,190.264,691.563,190.264z M699.042,154.369
		c-0.172-2.244-0.382-4.024-0.627-5.31c-1.947-8.796-5.79-8.796-7.053-8.796c-4.865,0-7.892,4.742-9.01,14.105H699.042z"/>
	<path fill="#FFFFFF" d="M691.362,133.211c4.209,0,8.082,0.984,11.623,2.947c4.809,2.736,7.98,7.721,9.518,14.947
		c0.533,2.668,0.834,6.387,0.902,11.158H679.94c0.133,5.895,1.035,10.703,2.705,14.422c1.002,2.104,2.238,3.719,3.707,4.842
		s3.072,1.684,4.809,1.684c1.938,0,3.74-0.701,5.412-2.105c2.604-2.316,4.107-6.211,4.508-11.684h12.023
		c-0.336,2.947-0.803,5.193-1.404,6.736c-1.469,3.65-3.84,6.527-7.113,8.631c-3.674,2.316-8.014,3.475-13.023,3.475
		c-7.414,0-13.094-2.316-17.033-6.947c-1.604-1.754-2.84-3.648-3.707-5.684c-2.07-4.633-3.105-9.58-3.105-14.844
		c0-5.963,1.268-11.438,3.807-16.42c1.803-3.438,4.273-6.105,7.414-8C682.546,134.264,686.687,133.211,691.362,133.211
		 M680.142,156.369h21.039c-0.199-3.369-0.467-5.93-0.801-7.684c-1.537-6.947-4.543-10.422-9.018-10.422
		C684.884,138.264,681.144,144.301,680.142,156.369 M691.362,129.211c-5.371,0-10.229,1.246-14.44,3.703l-0.024,0.015l-0.025,0.016
		c-3.759,2.268-6.75,5.486-8.89,9.567c-2.837,5.565-4.265,11.701-4.265,18.277c0,5.793,1.157,11.325,3.439,16.444
		c1.03,2.408,2.502,4.672,4.373,6.729c4.714,5.508,11.454,8.301,20.033,8.301c5.752,0,10.852-1.376,15.157-4.091
		c3.998-2.569,6.913-6.104,8.69-10.521c0.748-1.918,1.288-4.449,1.668-7.776l0.507-4.453h-0.135l-0.046-3.216
		c-0.073-5.062-0.394-8.949-0.979-11.885c-1.789-8.409-5.642-14.327-11.462-17.64C700.796,130.371,696.233,129.211,691.362,129.211
		L691.362,129.211z M684.651,152.369c1.112-6.71,3.362-10.105,6.711-10.105c0.863,0,3.485,0,5.099,7.227
		c0.145,0.771,0.276,1.732,0.396,2.879H684.651L684.651,152.369z M684.183,166.264h13.119l-0.21,2.866
		c-0.317,4.339-1.372,7.35-3.136,8.95c-1.226,1.013-2.181,1.131-2.795,1.131c-0.854,0-1.61-0.273-2.379-0.861
		c-0.944-0.723-1.788-1.847-2.506-3.344C685.232,172.666,684.532,169.736,684.183,166.264L684.183,166.264z"/>
</g>
<g>
	<path fill="#006837" d="M741.757,190.264c-5.501,0-10.254-0.993-14.127-2.951c-2.194-1.032-4.21-2.813-5.94-5.265
		c-1.717-2.506-2.805-5.227-3.249-8.11c-0.141-0.951-0.275-2.084-0.414-3.476l-0.219-2.198h15.177l0.147,1.841
		c0.194,2.441,0.417,4.268,0.663,5.428c0.22,1.042,0.611,2.041,1.165,2.973c0.413,0.722,1.006,1.244,1.832,1.63l0.076,0.035
		l0.072,0.042c1.173,0.672,2.486,0.999,4.016,0.999c2.614,0,4.508-0.733,5.79-2.242c1.032-1.192,1.528-2.658,1.528-4.494
		c0-1.605-0.36-2.713-1.069-3.293c-0.396-0.345-1.382-0.997-4.122-1.983l-11.436-4.216c-4.885-1.685-8.282-4.11-10.058-7.196
		c-1.506-2.604-2.271-5.598-2.271-8.892c0-6.34,2.687-11.167,7.984-14.346c3.629-2.213,8.091-3.338,13.252-3.338
		c4.517,0,8.62,0.761,12.195,2.262c4.378,1.825,7.444,4.969,9.111,9.343c0.733,1.933,1.214,4.389,1.428,7.302l0.158,2.146h-15.167
		l-0.105-1.889c-0.126-2.263-0.313-3.982-0.558-5.11c-0.219-1.006-0.612-1.991-1.168-2.928c-0.315-0.493-0.79-0.921-1.417-1.251
		c-1.014-0.56-2.106-0.822-3.376-0.822c-2.272,0-3.935,0.662-5.081,2.024c-0.892,1.093-1.335,2.436-1.335,4.081
		c0,1.069,0.222,1.887,0.658,2.428c0.41,0.523,1.635,1.569,5.44,2.957l9.221,3.367c4.393,1.667,7.5,3.427,9.523,5.392
		c2.866,2.851,4.312,6.692,4.312,11.435c0,6.293-2.385,11.1-7.089,14.288C753.458,188.904,748.22,190.264,741.757,190.264z"/>
	<path fill="#FFFFFF" d="M740.556,133.211c4.273,0,8.08,0.703,11.422,2.105c3.873,1.615,6.545,4.352,8.016,8.211
		c0.666,1.754,1.102,4,1.303,6.736h-11.123c-0.133-2.385-0.334-4.193-0.6-5.422c-0.268-1.227-0.736-2.402-1.402-3.525
		c-0.537-0.842-1.271-1.508-2.205-2c-1.27-0.701-2.705-1.053-4.309-1.053c-2.873,0-5.076,0.912-6.611,2.736
		c-1.203,1.475-1.805,3.264-1.805,5.369c0,1.545,0.367,2.773,1.102,3.684c0.936,1.195,3.039,2.387,6.313,3.58l9.219,3.367
		c4.072,1.545,7.012,3.195,8.816,4.947c2.471,2.457,3.705,5.791,3.705,10c0,5.615-2.07,9.826-6.211,12.633
		c-3.541,2.455-8.35,3.684-14.428,3.684c-5.209,0-9.617-0.912-13.225-2.736c-1.938-0.912-3.674-2.457-5.209-4.633
		c-1.537-2.244-2.506-4.666-2.906-7.262c-0.135-0.912-0.268-2.035-0.4-3.369h11.121c0.201,2.525,0.434,4.422,0.701,5.684
		c0.266,1.264,0.734,2.457,1.402,3.58c0.602,1.053,1.504,1.859,2.705,2.42c1.469,0.842,3.139,1.264,5.01,1.264
		c3.207,0,5.645-0.982,7.314-2.947c1.336-1.543,2.004-3.475,2.004-5.789c0-2.246-0.602-3.859-1.805-4.842
		c-0.801-0.701-2.371-1.475-4.709-2.316l-11.422-4.211c-4.475-1.543-7.48-3.648-9.016-6.316c-1.338-2.314-2.004-4.947-2.004-7.895
		c0-5.613,2.336-9.824,7.014-12.631C731.671,134.229,735.747,133.211,740.556,133.211 M740.556,129.211
		c-5.533,0-10.347,1.224-14.305,3.638c-5.835,3.5-8.932,9.054-8.932,16.046c0,3.65,0.854,6.979,2.541,9.896
		c1.805,3.136,4.999,5.646,9.508,7.473h-9.352h-4.418l0.438,4.396c0.142,1.424,0.28,2.587,0.424,3.558
		c0.495,3.207,1.692,6.205,3.563,8.938l0.016,0.022l0.016,0.022c1.92,2.721,4.181,4.713,6.721,5.921
		c4.146,2.085,9.187,3.143,14.981,3.143c6.878,0,12.499-1.479,16.707-4.396c5.177-3.509,7.932-9.022,7.932-15.92
		c0-5.294-1.644-9.613-4.885-12.836c-1.834-1.781-4.378-3.372-7.751-4.848h7.536h4.305l-0.315-4.293
		c-0.231-3.15-0.739-5.722-1.553-7.863c-1.871-4.911-5.308-8.437-10.215-10.482C749.703,130.024,745.34,129.211,740.556,129.211
		L740.556,129.211z M738.126,143.553c0.479-0.561,1.368-1.289,3.531-1.289c0.923,0,1.699,0.182,2.375,0.554l0.034,0.02l0.034,0.018
		c0.302,0.159,0.511,0.337,0.67,0.57c0.425,0.731,0.726,1.494,0.895,2.27c0.151,0.698,0.364,2.104,0.514,4.792l0.052,0.925
		l-4.203-1.535c-3.739-1.363-4.506-2.254-4.537-2.291l-0.018-0.023l-0.017-0.021c-0.08-0.099-0.215-0.457-0.215-1.172
		C737.241,145.199,737.522,144.304,738.126,143.553L738.126,143.553z M740.956,179.211c-1.171,0-2.159-0.24-3.021-0.734
		l-0.146-0.083l-0.152-0.071c-0.578-0.27-0.797-0.558-0.924-0.779l-0.017-0.03l-0.019-0.03c-0.447-0.752-0.75-1.523-0.926-2.358
		c-0.229-1.083-0.44-2.823-0.628-5.178l-0.127-1.598l7.379,2.721c2.757,0.993,3.432,1.551,3.459,1.574l0.052,0.045l0.052,0.043
		c0.087,0.07,0.335,0.543,0.335,1.743c0,1.778-0.587,2.661-1.028,3.171C744.661,178.333,743.609,179.211,740.956,179.211
		L740.956,179.211z"/>
</g>
</svg>
